<?xml version="1.0" encoding="utf-8"?><svg viewBox="0 0 142 152" xmlns="http://www.w3.org/2000/svg" xmlns:xlink="http://www.w3.org/1999/xlink"><style>:root>svg{display:none}:root>svg:target{display:block}</style><svg viewBox="0 0 33 40" id="android" xmlns="http://www.w3.org/2000/svg"><path d="M6.56 13.333l.002 15.74c0 1.435 1.141 2.594 2.553 2.594h.725v5.903C9.84 38.91 11 40 12.316 40c1.322 0 2.444-1.09 2.444-2.432v-5.901h3.28v5.903c0 1.34 1.16 2.43 2.478 2.43 1.322 0 2.442-1.09 2.442-2.432v-5.901l.728-.002c1.407 0 2.552-1.16 2.552-2.595V13.333H6.56zm26.24 2.452c0-1.342-1.14-2.452-2.46-2.452-1.32-.001-2.46 1.112-2.46 2.454v10.176c0 1.344 1.138 2.37 2.46 2.37 1.32 0 2.46-1.025 2.46-2.37V15.785zm-27.88 0c0-1.342-1.14-2.452-2.46-2.452C1.14 13.332 0 14.445 0 15.787v10.176c0 1.344 1.138 2.37 2.46 2.37 1.32 0 2.46-1.025 2.46-2.37V15.785zM21.24 3.598L22.78.5c.112-.22-.03-.5-.267-.5a.303.303 0 00-.269.175l-1.556 3.13c-2.511-1.228-5.813-1.353-8.576 0L10.555.175A.3.3 0 0010.286 0c-.236 0-.379.28-.267.5l1.541 3.098c-3.025 1.724-5 4.307-5 8.067h19.68c0-3.76-1.975-6.343-5-8.067zm-8.938 4.735a.828.828 0 01-.822-.833.83.83 0 01.822-.833c.452 0 .818.376.818.833 0 .46-.366.833-.818.833zm8.196 0a.826.826 0 01-.818-.833c0-.457.366-.833.818-.833a.83.83 0 01.822.833c0 .46-.369.833-.822.833z"/></svg><svg viewBox="0 0 32 38" id="apple" xmlns="http://www.w3.org/2000/svg"><path d="M31.16 27.879c-1.225 3.61-4.89 10.002-8.667 10.072-2.505.049-3.31-1.51-6.174-1.51-2.863 0-3.758 1.462-6.127 1.557C6.185 38.155 0 28.772 0 20.588c0-7.516 5.154-11.241 9.656-11.31 2.415-.044 4.696 1.655 6.169 1.655 1.478 0 4.248-2.042 7.16-1.743 1.218.052 4.642.499 6.838 3.764-5.828 3.866-4.92 11.953 1.337 14.925zM23.024 0c-4.403.18-7.996 4.875-7.494 8.758 4.07.321 7.974-4.315 7.494-8.758z"/></svg><svg viewBox="0 0 16 16" id="arrow-down" xmlns="http://www.w3.org/2000/svg"><path d="M8 11L3 6.4 4.556 5 8 8.2 11.444 5 13 6.4 8 11z"/></svg><svg viewBox="0 0 20 16" id="email" xmlns="http://www.w3.org/2000/svg"><path d="M18 0H2C.9 0 .01.9.01 2L0 14c0 1.1.9 2 2 2h16c1.1 0 2-.9 2-2V2c0-1.1-.9-2-2-2zm0 4l-8 5-8-5V2l8 5 8-5v2z"/></svg><svg viewBox="0 0 20 20" id="facebook" xmlns="http://www.w3.org/2000/svg"><path d="M20 10c0-5.52-4.48-10-10-10S0 4.48 0 10c0 4.84 3.44 8.87 8 9.8V13H6v-3h2V7.5C8 5.57 9.57 4 11.5 4H14v3h-2c-.55 0-1 .45-1 1v2h3v3h-3v6.95c5.05-.5 9-4.76 9-9.95z"/></svg><svg viewBox="0 0 135 108" id="form-email" xmlns="http://www.w3.org/2000/svg"><path opacity=".12" d="M121.5 0h-108C6.075 0 .067 6.075.067 13.5L0 94.5c0 7.425 6.075 13.5 13.5 13.5h108c7.425 0 13.5-6.075 13.5-13.5v-81C135 6.075 128.925 0 121.5 0zm0 27l-54 33.75L13.5 27V13.5l54 33.75 54-33.75V27z"/></svg><svg viewBox="0 0 142 152" id="form-message" xmlns="http://www.w3.org/2000/svg"><path opacity=".12" d="M55.575 2.848C17.685 12.136-5.53 50.681 2.346 82.82c3.125 12.748 14.014 27.453 14.014 27.453L11.9 151.52l37.662-24.675c12.362 3.441 27.175 3.425 41.15 0 37.892-9.288 56.951-45.582 49.075-77.714C131.911 17 93.466-6.439 55.575 2.848z"/></svg><svg viewBox="0 0 14 20" id="location" xmlns="http://www.w3.org/2000/svg"><path d="M7 0C3.13 0 0 3.13 0 7c0 5.25 7 13 7 13s7-7.75 7-13c0-3.87-3.13-7-7-7zm0 9.5a2.5 2.5 0 010-5 2.5 2.5 0 010 5z"/></svg><svg viewBox="0 0 40 40" id="sidebar-facebook" xmlns="http://www.w3.org/2000/svg"><path d="M40 20.05C40 8.982 31.04 0 20 0S0 8.982 0 20.05c0 9.704 6.88 17.785 16 19.65V26.064h-4V20.05h4v-5.012c0-3.87 3.14-7.018 7-7.018h5v6.015h-4c-1.1 0-2 .902-2 2.005v4.01h6v6.015h-6V40c10.1-1.002 18-9.544 18-19.95z"/></svg><svg viewBox="0 0 40 39" id="sidebar-github" xmlns="http://www.w3.org/2000/svg"><path d="M20 0C8.95 0 0 8.815 0 19.687c0 8.7 5.73 16.078 13.675 18.679 1 .185 1.367-.424 1.367-.947 0-.467-.017-1.706-.025-3.347-5.564 1.187-6.737-2.641-6.737-2.641-.91-2.273-2.225-2.88-2.225-2.88-1.812-1.22.14-1.196.14-1.196 2.008.137 3.063 2.029 3.063 2.029 1.784 3.01 4.682 2.14 5.825 1.638.18-1.274.695-2.14 1.267-2.633-4.442-.493-9.11-2.186-9.11-9.729 0-2.148.775-3.905 2.058-5.282-.225-.498-.9-2.5.175-5.21 0 0 1.675-.528 5.5 2.018 1.6-.438 3.3-.655 5-.665 1.7.01 3.4.227 5 .665 3.8-2.546 5.475-2.019 5.475-2.019 1.075 2.712.4 4.713.2 5.211 1.275 1.377 2.05 3.134 2.05 5.282 0 7.564-4.675 9.228-9.125 9.712.7.591 1.35 1.798 1.35 3.643 0 2.635-.025 4.752-.025 5.391 0 .516.35 1.132 1.375.935C34.275 35.757 40 28.374 40 19.687 40 8.815 31.045 0 20 0z"/></svg><svg viewBox="0 0 40 40" id="sidebar-linkedin" xmlns="http://www.w3.org/2000/svg"><path d="M20 0C8.956 0 0 8.956 0 20s8.956 20 20 20 20-8.956 20-20S31.044 0 20 0zm-5.812 30.234h-4.87V15.58h4.87v14.654zM11.753 13.58h-.032c-1.634 0-2.691-1.125-2.691-2.531 0-1.438 1.089-2.532 2.755-2.532s2.692 1.094 2.724 2.532c0 1.406-1.058 2.531-2.756 2.531zm19.999 16.655h-4.87v-7.84c0-1.97-.706-3.313-2.468-3.313-1.346 0-2.147.906-2.5 1.781-.128.313-.16.75-.16 1.189v8.183h-4.87s.064-13.279 0-14.654h4.87v2.075c.648-.998 1.806-2.419 4.39-2.419 3.205 0 5.608 2.095 5.608 6.596v8.402z"/></svg><svg viewBox="0 0 40 40" id="sidebar-skype" xmlns="http://www.w3.org/2000/svg"><path d="M38.81 24.222C41.703 11.22 30.31-.592 16.933 1.675 9.67-2.83 0 2.261 0 10.902c0 2.009.554 3.89 1.518 5.512-2.689 13.032 8.797 24.674 22.163 22.251 9.45 4.996 19.89-4.967 15.129-14.443zm-12.718 7.84c-3.51 1.444-9.286 1.453-12.78-.377-4.984-2.657-5.87-8.639-1.57-8.639 3.24 0 2.214 3.778 5.486 5.318 1.502.694 4.73.765 6.606-.5 1.854-1.24 1.684-3.191.676-4.123-2.669-2.464-10.306-1.485-13.798-5.799-1.516-1.871-1.803-5.172.062-7.566 3.25-4.182 12.787-4.437 16.888-1.279 3.787 2.93 2.764 6.819-.291 6.819-3.675 0-1.743-4.808-7.676-4.808-4.3 0-5.992 3.058-2.963 4.547 4.105 2.039 14.568 1.358 14.568 9.327-.008 3.317-2.04 5.789-5.208 7.08z"/></svg><svg viewBox="0 0 40 40" id="sidebar-whatsapp" xmlns="http://www.w3.org/2000/svg"><path d="M20.009.004h-.01C8.974.004.008 8.972.008 20c0 4.374 1.41 8.428 3.807 11.72l-2.492 7.43 7.686-2.457a19.823 19.823 0 0011 3.304c11.025 0 19.99-8.97 19.99-19.996C40 8.975 31.035.004 20.01.004zm11.635 28.237c-.482 1.362-2.397 2.492-3.924 2.822-1.045.222-2.41.4-7.004-1.505-5.876-2.434-9.66-8.406-9.955-8.793-.283-.387-2.375-3.162-2.375-6.031 0-2.87 1.457-4.267 2.045-4.867.482-.492 1.28-.717 2.044-.717.248 0 .47.012.67.022.588.025.883.06 1.27.988.482 1.162 1.657 4.031 1.797 4.326.143.295.285.695.085 1.082-.187.4-.352.578-.647.918-.295.34-.575.6-.87.965-.27.317-.575.657-.235 1.244.34.575 1.515 2.492 3.244 4.032 2.232 1.987 4.042 2.622 4.69 2.892.482.2 1.057.152 1.41-.223.447-.482.999-1.282 1.561-2.07.4-.564.905-.634 1.435-.434.54.188 3.397 1.6 3.984 1.892.587.295.975.435 1.117.683.14.247.14 1.41-.342 2.774z"/></svg><svg viewBox="0 0 20 20" id="skype" xmlns="http://www.w3.org/2000/svg"><path d="M19.405 12.11C20.852 5.61 15.155-.295 8.467.839 4.835-1.416 0 1.13 0 5.45c0 1.005.277 1.945.76 2.756-1.345 6.516 4.397 12.337 11.08 11.126 4.725 2.498 9.946-2.484 7.565-7.222zm-6.359 3.921c-1.755.722-4.643.726-6.39-.188-2.492-1.33-2.935-4.32-.785-4.32 1.62 0 1.107 1.889 2.743 2.659.75.347 2.365.383 3.303-.25.927-.62.842-1.596.338-2.062-1.334-1.232-5.153-.742-6.899-2.899-.758-.936-.901-2.586.031-3.783 1.625-2.091 6.394-2.219 8.444-.64 1.893 1.466 1.382 3.41-.145 3.41-1.838 0-.872-2.404-3.838-2.404-2.15 0-2.996 1.53-1.482 2.273 2.053 1.02 7.284.68 7.284 4.664-.004 1.658-1.02 2.895-2.604 3.54z"/></svg><svg viewBox="0 0 18 18" id="tel" xmlns="http://www.w3.org/2000/svg"><path d="M3.62 7.79c1.44 2.83 3.76 5.14 6.59 6.59l2.2-2.2c.27-.27.67-.36 1.02-.24 1.12.37 2.33.57 3.57.57.55 0 1 .45 1 1V17c0 .55-.45 1-1 1C7.61 18 0 10.39 0 1c0-.55.45-1 1-1h3.5c.55 0 1 .45 1 1 0 1.25.2 2.45.57 3.57.11.35.03.74-.25 1.02l-2.2 2.2z"/></svg><svg viewBox="0 0 36 40" id="unity" xmlns="http://www.w3.org/2000/svg"><path d="M31.593 0l-14.49 4.257-2.145 4.15-4.351-.035L0 20.002l10.607 11.63 4.35-.036 2.148 4.147L31.593 40l3.882-15.883-2.206-4.114 2.206-4.114L31.593 0zM15.307 9.075l11.085-3.124-6.363 12.087H7.302l8.005-8.963zm0 21.853l-8.005-8.963h12.727l6.363 12.086-11.085-3.123zm14.187 1.159l-6.365-12.085 6.365-12.088 3.073 12.089-3.073 12.084z"/></svg><svg viewBox="0 0 20 20" id="whatsapp" xmlns="http://www.w3.org/2000/svg"><path d="M10.002 0h-.005C4.485 0 0 4.485 0 10c0 2.188.705 4.215 1.904 5.861L.658 19.576 4.5 18.347A9.913 9.913 0 0010.002 20C15.517 20 20 15.514 20 10S15.516 0 10.002 0zm5.82 14.121c-.242.681-1.2 1.246-1.963 1.412-.523.11-1.205.2-3.503-.753-2.938-1.217-4.831-4.204-4.978-4.397C5.236 10.188 4.19 8.8 4.19 7.366c0-1.435.729-2.133 1.022-2.433.242-.247.64-.36 1.023-.36.124 0 .235.007.335.012.294.013.441.03.635.494.241.581.829 2.016.899 2.163.071.148.142.348.042.542-.094.2-.176.288-.324.458-.147.17-.287.3-.434.483-.135.159-.288.329-.118.623.17.287.758 1.246 1.623 2.016 1.116.993 2.02 1.311 2.345 1.446.24.1.528.076.705-.111.223-.242.5-.642.78-1.035.2-.283.453-.318.718-.218.27.094 1.699.8 1.993.947.293.147.487.217.559.34.07.124.07.706-.172 1.388z"/></svg></svg>